<?xml version="1.0" encoding="UTF-8"?><svg id="Layer_2" xmlns="http://www.w3.org/2000/svg" viewBox="0 0 90.6391 92.8507"><g id="Components"><g id="e91eaf5d-1ba4-49ad-afbf-665b7ca13bb1_22"><path d="M90.6391,31.8039c0-19.9147-11.2067-31.8039-29.9773-31.8039h-17.4984c-7.6882,0-13.9208,6.2326-13.9208,13.9208v15.3218h2.1766c18.7706,0,29.9773,11.8892,29.9773,31.8039,0,.8635-.0323,1.7098-.079,2.5479,8.3284-.1431,15.485-2.9964,20.7239-8.2889,5.6246-5.683,8.5977-13.8095,8.5977-23.5015Z" style="fill:#1488ff; stroke-width:0px;"/><path d="M29.2426,59.9629v-30.7203h-15.3218c-7.6882,0-13.9208,6.2326-13.9208,13.9208v46.0421c0,2.0132,1.632,3.6452,3.6452,3.6452h27.774c8.6101,0,16.0029-2.8711,21.3796-8.3027,5.1235-5.1768,8.0385-12.3855,8.5187-20.9537-.2191.0038-.4352.0137-.6557.0137h-27.774c-2.0132,0-3.6452-1.632-3.6452-3.6452Z" style="fill:#1488ff; stroke-width:0px;"/></g></g></svg>