<?xml version="1.0" encoding="UTF-8"?><svg id="Layer_2" xmlns="http://www.w3.org/2000/svg" viewBox="0 0 585.8583 233.4063"><g id="Components"><g id="c83196a4-f1cc-49dc-930c-f0a204f39be4_4"><path d="M258.1135,198.2875c0,20.3409-13.2234,32.3131-30.6067,32.3131h-31.9538v-64.6261h31.9538c17.3833,0,30.6067,10.5515,30.6067,32.3131ZM235.8992,197.614c0-5.9896-3.3336-11.8788-9.6493-12.3418h-8.9766v24.6836h8.9766c6.2793-.3387,9.6493-6.4305,9.6493-12.3418Z" style="fill:#000; stroke-width:0px;"/><path d="M261.9346,230.6006v-64.6261h21.7204v64.6261h-21.7204Z" style="fill:#000; stroke-width:0px;"/><path d="M346.2476,165.974l-.0002,64.6266h-21.9909s-5.8155-11.4206-5.8155-11.4206c-4.0616-7.9753-6.9963-16.4762-8.7184-25.2588-.0554-.2873-.3087-.4947-.6015-.4947-.3561,0-.6379.3039-.611.6601l2.8206,36.5139h-21.7203s.0002-64.6259.0002-64.6259l21.9894.4488,5.817,11.4197c4.0616,7.9753,6.9947,16.4762,8.7168,25.2588.057.2873.3087.4954.6015.4954h.0016c.3561,0,.6379-.3039.611-.6601l-2.8222-36.9634h21.7219Z" style="fill:#000; stroke-width:0px;"/><path d="M408.8855,165.974v64.6266s-21.9911,0-21.9911,0l-5.8155-11.4205c-4.0617-7.9753-6.9963-16.4762-8.7184-25.2588-.0554-.2873-.3087-.4947-.6015-.4947-.3561,0-.6379.3039-.611.6601l2.8206,36.5139h-21.7203s.0001-64.6258.0001-64.6258l21.9894.4488,5.8171,11.4197c4.0617,7.9753,6.9947,16.4762,8.7169,25.2588.057.2873.3087.4954.6015.4954h.0016c.3561,0,.6379-.3039.611-.6601l-2.8222-36.9634h21.7218Z" style="fill:#000; stroke-width:0px;"/><path d="M466.3162,210.3596v20.241s-51.4309-.0001-51.4309-.0001v-64.6265s50.5335,0,50.5335,0l-.4496,20.241h-28.3636s0,4.8016,0,4.8016h25.2231s0,13.8233,0,13.8233h-25.2231s-2.4709,8.3615-2.4709,8.3615c-.1108.3736.1694.7487.5588.7487.2343,0,.4464-.1401.5382-.3554.8326-1.9612,2.759-3.2354,4.8895-3.2354h26.195Z" style="fill:#000; stroke-width:0px;"/><path d="M491.0528,200.3864c.038.4282,1.7902,30.2142,1.7902,30.2142h-21.7204v-64.6261h28.3638c19.058,0,27.0167,7.7894,27.0167,18.6702,0,8.7185-5.9991,16.6544-14.2697,16.6544-.8738,0-2.8824.0182-4.1994.0245-.3134.0016-.5667.2564-.5667.5706,0,.2857.2105.5263.4923.5659,3.1515.4337,20.3385,3.9105,20.3385,28.1406h-21.722c0-11.4736-14.3568-19.6262-14.3568-30.2142-.2184-1.0178-1.2283-.6878-1.1666,0ZM492.8431,192.5876h4.4891c4.603-.1243,6.9552-1.241,6.9552-4.869,0-3.6517-2.3158-4.6996-6.9552-4.8698h-4.4891v9.7387Z" style="fill:#000; stroke-width:0px;"/><path d="M552.5623,190.2093c2.0957,0,33.296,1.1967,33.296,20.6448,0,12.2674-11.6833,21.0928-28.0947,21.0928-17.7188,0-27.0563-6.6426-27.0563-6.6426l.8975-22.0552c6.2018,4.7629,16.519,6.7969,25.8897,6.7969,9.5622,0,9.4308-3.6802,7.495-3.6802-2.0926,0-33.296-1.1967-33.296-20.6448,0-12.2666,10.7858-21.0928,27.1972-21.0928,17.7188,0,25.532,6.6426,25.532,6.6426l-.8975,22.0552c-5.9517-4.9085-14.0972-6.7969-23.4679-6.7969-9.4324,0-9.4308,3.6802-7.4934,3.6802h-.0016Z" style="fill:#000; stroke-width:0px;"/><path d="M258.1135,114.5836c0,20.3409-13.2234,32.3131-30.6067,32.3131h-31.9538v-64.6269h31.9538c17.3833,0,30.6067,10.5523,30.6067,32.3139ZM235.8992,113.9101c0-5.9896-3.3336-11.8788-9.6493-12.3418h-8.9766v24.6836h8.9766c6.2793-.3395,9.6493-6.4313,9.6493-12.3418Z" style="fill:#000; stroke-width:0px;"/><path d="M313.3653,126.6553v20.2412s-51.4311,0-51.4311,0v-64.6269s50.5336,0,50.5336,0l-.4495,20.2412h-28.3637s0,4.8017,0,4.8017h25.2233s0,13.8233,0,13.8233h-25.2233s-2.4709,8.3616-2.4709,8.3616c-.1108.3736.1694.7487.5588.7487.2343,0,.4464-.1401.5382-.3554.8326-1.9612,2.759-3.2354,4.8895-3.2354h26.1952Z" style="fill:#000; stroke-width:0px;"/><path d="M338.6477,106.5054c2.0957,0,33.296,1.1967,33.296,20.644,0,12.2674-11.6833,21.0936-28.0947,21.0936-17.7188,0-27.0579-6.6426-27.0579-6.6426l.8991-22.0552c6.2018,4.7629,16.519,6.7961,25.8897,6.7961,9.5622,0,9.4308-3.6794,7.495-3.6794-2.0926,0-33.296-1.1975-33.296-20.6448,0-12.2666,10.7858-21.0936,27.1972-21.0936,17.7188,0,25.532,6.6434,25.532,6.6434l-.8991,22.0544c-5.9501-4.9077-14.0956-6.7961-23.4663-6.7961-9.4324,0-9.4308,3.6802-7.4934,3.6802h-.0016Z" style="fill:#000; stroke-width:0px;"/><path d="M376.2808,146.8967v-64.6269h21.7204v64.6269h-21.7204Z" style="fill:#000; stroke-width:0px;"/><path d="M445.939,146.8967c0-12.0846.5936-27.6966-10.6766-27.6966-.6316,0-.7044,1.1666,0,1.1666,10.9172,0,14.9504,27.8762-6.7827,27.8762-18.8031,0-26.2981-13.6667-26.2981-33.6593,0-22.3868,11.085-33.6601,29.8897-33.6601,12.9322,0,22.1256,3.5623,26.0686,8.4384l-.448,22.3243c-5.1096-5.8725-15.6817-7.2449-22.659-7.2449-6.7384,0-11.9825,4.2184-11.9825,10.1424,0,4.9663,2.2224,10.1424,7.0454,10.1424,3.5583,0,3.4681-4.3593-.1282-4.3593v-7.2702h10.1906c20.3354,0,27.5027,15.411,27.5027,33.8002h-21.722Z" style="fill:#000; stroke-width:0px;"/><path d="M527.1712,82.2698v64.6269h-21.9911l-5.8155-11.4205c-4.0617-7.9754-6.9964-16.4763-8.7185-25.2589-.0554-.2873-.3087-.4947-.6015-.4947-.3561,0-.6379.3039-.611.6601l2.8207,36.5141h-21.7204v-64.6261l21.9895.4487,5.8171,11.4197c4.0617,7.9754,6.9948,16.4763,8.717,25.2589.057.2873.3087.4954.6015.4954h.0016c.3561,0,.6379-.3039.611-.6601l-2.8223-36.9636h21.722Z" style="fill:#000; stroke-width:0px;"/><polygon points="92.0419 19.6246 79.0613 20.6053 79.0613 36.2202 92.0419 33.2144 92.0419 19.6246" style="fill:#000; stroke-width:0px;"/><polygon points="80.0014 60.0402 83.0826 95.0128 96.1502 95.0128 95.477 37.7753 74.2857 42.6844 74.483 59.3322 80.0014 60.0402" style="fill:#000; stroke-width:0px;"/><path d="M75.1677,64.6823l-21.5743-2.7737,2.8432,32.2918c.116.0696.2322.1334.3482.1973.7892.3946,1.6769.6151,2.6228.6151h18.4351l-2.6751-30.3305Z" style="fill:#000; stroke-width:0px;"/><polygon points="138.1034 22.8045 143.8365 22.3751 144.9273 12.0289 123.736 14.3906 123.736 44.9706 134.4651 48.5161 138.1034 22.8045" style="fill:#000; stroke-width:0px;"/><polygon points="142.6876 27.6961 135.7011 77.0535 157.1652 77.0535 164.3837 26.0656 142.6876 27.6961" style="fill:#000; stroke-width:0px;"/><polygon points="55.7404 39.2144 56.9242 57.075 69.249 58.6591 69.0083 38.5507 73.8389 37.4272 73.8389 11.4139 52.5896 6.7543 52.5896 40.1254 55.7404 39.2144" style="fill:#000; stroke-width:0px;"/><path d="M100.6241,31.2241l.7486,63.7887h3.6556c.1334,0,.2669-.0058.3947-.0174l5.6344-54.2143,7.4563,2.4661V4.6596L97.2643,0v32.0017l3.3598-.7776Z" style="fill:#000; stroke-width:0px;"/><path d="M115.5832,47.7733l-3.9805,38.286c.47-1.265,1.1141-2.4371,1.8975-3.4874.8297-1.1025,1.8162-2.0716,2.9304-2.8781.6556-.4758,1.3519-.8936,2.0831-1.2476.8299-.4062,1.7003-.7253,2.6112-.9575.8414-.2147,1.7177-.354,2.6112-.4062.2901-.0174.5861-.029.882-.029h5.8085l3.296-23.2861-18.1393-5.9942Z" style="fill:#000; stroke-width:0px;"/><path d="M124.618,81.1154c-.2959,0-.5919.0116-.882.0406-.9109.0812-1.7871.2843-2.6112.6035-.9458.354-1.8278.8588-2.6112,1.4797-.1856.1451-.3655.3017-.5396.4584-.9632.8878-1.7524,1.9613-2.2978,3.1741-.4584.9922-.7486,2.0773-.853,3.2205-.2031,2.3443-1.2128,4.4332-2.7446,6.0116-.5049.5106-1.0561.969-1.6596,1.3578-.3771.2553-.7718.4758-1.1838.6673-.5048.2437-1.0327.441-1.5783.5861-.8414.2379-1.7234.3598-2.6286.3598h-45.6205c-.8008,0-1.5783-.0986-2.3269-.2785-.0813-.0174-.1625-.0406-.2437-.0638-.8704-.2321-1.6945-.5861-2.4488-1.0387-.0986-.0522-.1914-.1103-.2843-.1741-.4757-.3017-.9283-.6441-1.3403-1.0271-.0581-.0522-.1162-.1103-.1741-.1625-.5049-.4874-.9575-1.0271-1.3521-1.6132-.1973-.2901-.3771-.5977-.5396-.9168-.2959-.5571-.5397-1.149-.7195-1.7698-.1857-.6209-.3076-1.2707-.3656-1.9381-.1102-1.2708-.4584-2.4661-.998-3.5454v-.0058c-.3424-.6789-.76-1.3114-1.2475-1.8917-.3482-.4178-.7311-.8066-1.1489-1.1663-1.7234-1.4797-3.9691-2.3675-6.4004-2.3675H5.443l12.1217,139.4032c.6325,7.2939,6.737,12.8877,14.0598,12.8877h101.1927c7.3171,0,13.4215-5.5938,14.0598-12.8877l12.1217-139.4032h-34.3808ZM115.1234,172.7225c-4.3217,4.3659-10.2252,6.7197-17.0955,6.8377-.3961,7.068-2.8007,13.0146-7.0272,17.285-4.4353,4.4806-10.5338,6.849-17.6364,6.849h-22.9112c-1.6608,0-3.007-1.3463-3.007-3.0069v-37.9809c0-6.3422,5.1414-11.4835,11.4835-11.4835h12.6392v-12.6392c0-6.3422,5.1414-11.4835,11.4835-11.4835h14.4347c15.4842,0,24.7288,9.8076,24.7288,26.2355,0,7.9951-2.4525,14.6988-7.0924,19.3868Z" style="fill:#000; stroke-width:0px;"/><path d="M73.3643,151.2229h-1.7955v25.3417c0,1.6607,1.3463,3.0069,3.007,3.0069h22.9112c.1819,0,.3601-.0082.5409-.0113.0385-.6913.0652-1.3895.0652-2.1018,0-16.4279-9.2446-26.2355-24.7288-26.2355Z" style="fill:#000; stroke-width:0px;"/><polygon points="47.3672 41.6399 47.3672 18.3829 29.4834 20.9534 28.6827 31.8914 31.0791 46.3633 47.3672 41.6399" style="fill:#000; stroke-width:0px;"/><path d="M30.0636,52.0905l1.6596,24.963h8.0947c2.4487,0,4.7465.6209,6.7426,1.7234.2727.1451.5456.3075.8066.4758.5919.383,1.1605.8066,1.6827,1.2824.325.2786.6325.5803.9285.8994.0347.0348.0696.0696.0986.1044l-2.2572-25.6362,3.8239.4932-.6847-10.3577-20.8954,6.0522Z" style="fill:#000; stroke-width:0px;"/><polygon points="26.4892 77.0535 24.5743 48.2492 26.025 47.8255 21.7251 21.8586 0 20.7329 9.3307 77.0535 26.4892 77.0535" style="fill:#000; stroke-width:0px;"/></g></g></svg>